<?xml version="1.0" standalone="no"?>
<!DOCTYPE svg PUBLIC "-//W3C//DTD SVG 1.1//EN" "http://www.w3.org/Graphics/SVG/1.1/DTD/svg11.dtd">
<svg data-v-6805eed4="" version="1.0" xmlns="http://www.w3.org/2000/svg"
  xmlns:xlink="http://www.w3.org/1999/xlink" width="100%" height="100%"
  viewBox="0 0 340.000000 250.000000" preserveAspectRatio="xMidYMid meet"
  color-interpolation-filters="sRGB" style="margin: auto;">
  <rect data-v-6805eed4="" x="0" y="0" width="100%" height="100%" fill="#fef5ef" fill-opacity="1"
    class="background"></rect>
  <rect data-v-6805eed4="" x="0" y="0" width="100%" height="100%" fill="url(#watermark)"
    fill-opacity="1" class="watermarklayer"></rect>
  <g data-v-6805eed4="" fill="#4e374f" class="iconlinesvg-g iconlinesvg"
    transform="translate(84.07057762145996,93.20385551452637)">
    <g class="tp-name" transform="translate(0,0)">
      <g transform="translate(0, 5.063915026725063)">
        <g data-gra="path-name" fill="#4e374f" transform="scale(1)">
          <path
            d="M29.81-31.83L29.81-38.22L4.31-38.22L4.31 0L10.70 0L10.70-15.94L26.59-15.94L26.59-22.27L10.70-22.27L10.70-31.83Z"
            transform="translate(-4.313011828935396, 38.76251137397634)"></path>
        </g>
      </g>
      <g transform="translate(29, 0)">
        <g>
          <g class="imagesvg">
            <g>
              <rect fill="#4e374f" fill-opacity="0" stroke-width="2" x="0" y="0"
                width="47.03912647861692" height="49.436292291848666" class="image-rect"></rect>
              <svg x="0" y="0" width="47.03912647861692" height="49.436292291848666"
                filtersec="colorsb945561071" class="image-svg-svg primary"
                style="overflow: visible;">
                <svg xmlns="http://www.w3.org/2000/svg"
                  viewBox="0.000019073486328125 0 195.5634002685547 205.52999877929688">
                  <g>
                    <g>
                      <path
                        d="M156.44 38.73a70 70 0 0 0-12.63-4.14A28.64 28.64 0 0 1 133.72 45a26.71 26.71 0 0 1 4.82 1.87c1.39.72 2.73 1.43 4 2.11 9.82 5.19 19 8 23.12 6.73a20 20 0 0 0 4.52-2s-1.9 5.74-4.62 8.24c-1.23 1.13-15 16.46-42.32 7.68a51.43 51.43 0 0 1-9.57-4.47 16.06 16.06 0 0 1-.14 3.05C111.85 80.63 95.83 95 95.15 95.62l-2.52 2.24-1.5-3c-.36-.72-8.15-16.59-6.58-27.7q-3.25 1.75-7.05 3.53a34 34 0 0 1-14.56 3.45c-18.06 0-29.12-15.85-29.47-16.38-2.86-4.24-2.45-6-2.45-6a40.74 40.74 0 0 0 5.1 2.48c6.65 2.62 12.79.57 23-6 1.22-.78 2.49-1.58 3.81-2.4a24.82 24.82 0 0 1 6.43-2.73 27.8 27.8 0 0 1-8.53-9.73 61.05 61.05 0 0 0-21.73 5.34C10 51.2-2.43 79.09.39 112.78c4.13 49.29 34.61 92.75 97.39 92.75s93.26-43.46 97.39-92.75c2.83-33.69-9.56-61.58-38.73-74.05zM166.95 149c-1.45 3.58-4.94 5.68-7.78 4.7s-4-4.68-2.53-8.26 4.94-5.68 7.78-4.7 3.98 4.68 2.53 8.26zm13.43-38c-1.5 12.18-8.55 23-13.18 22.59s-.67-8.39-.77-20.83-3.67-22.09 1.19-26.16c9.38-7.88 14.72 8.47 12.75 24.4z"
                        fill="#f75835"></path>
                      <path
                        d="M124.68 64.8a36.25 36.25 0 0 0 34.52-4.1c-6.19-.34-12.13-3.47-19-7.12-1.28-.68-2.6-1.37-4-2.08a52 52 0 0 0-11.11-3.63c-2.86-.54-9.28-1-9.28-1a49.41 49.41 0 0 1 9.28-3.61c13.26-3.63 17-15.36 18.05-22.27-3.28 1.67-8.49 3.39-16.78 4.65a32.71 32.71 0 0 0-17.43 8.22A22.78 22.78 0 0 0 105 40s.29-10.95 1.29-15.19C108 17.5 114 5.83 117.65.89L107.51 0c-9 11.31-10.38 21.79-10.6 32.2a73.71 73.71 0 0 0 .43 7.51s-2.57-3.1-3.56-4.24-6.07-6.81-12.92-8.67c-9.11-2.46-15.16-4-19-6.8a37.8 37.8 0 0 0 1.34 5.76c2.59 8.11 7.73 13.69 14.69 15.91s9.59 3.89 9.59 3.89a75.7 75.7 0 0 0-9.5.27 39.22 39.22 0 0 0-12.29 4.39c-1.3.81-2.55 1.6-3.76 2.37-6.81 4.33-12.63 8-18.79 8.21 6.23 5.58 17.54 12.1 32.17 5.2 4.89-2.3 10.87-5.63 12.52-6.61l5.31-3.17s-1.31 3-1.92 4.67a45.54 45.54 0 0 0-1.45 5.63c-1 6.45 1.9 16.59 4.51 22.78 4.41-4.41 12.45-12.75 14-21.17a17.37 17.37 0 0 0-.54-7.51c-.7-1.93-1.14-3.62-1.14-3.62s2.54 1 5.36 2.36 6.9 3.17 12.72 5.44z"
                        fill="#f75835"></path>
                    </g>
                  </g>
                </svg>
              </svg> <!---->
            </g>
          </g>
        </g>
      </g>
      <g transform="translate(80, 5.063915026725063)">
        <g data-gra="path-name" fill="#4e374f" transform="scale(1)">
          <path
            d="M22.17-5.84C15.12-5.84 9.50-10.92 9.50-19.11C9.50-26.81 14.30-32.37 22.17-32.37C25.66-32.37 28.88-30.96 31.17-28.66L35.65-33.14C32.21-36.63 27.46-38.76 22.17-38.76C10.97-38.76 3.00-30.63 3.00-19.11C3.00-7.10 11.63 0.55 22.17 0.55C27.46 0.55 32.21-1.58 35.65-5.02L31.17-9.55C28.88-7.26 25.66-5.84 22.17-5.84Z"
            transform="translate(-3.002729754322111, 38.76251137397634)"></path>
        </g>
      </g>
      <g transform="translate(116, 5.063915026725063)">
        <g data-gra="path-name" fill="#4e374f" transform="scale(1)">
          <path
            d="M18.62 0.55C26.75 0.55 32.98-4.09 32.98-12.23L32.98-38.22L26.59-38.22L26.59-12.23C26.59-7.97 22.60-5.84 18.62-5.84C14.58-5.84 11.03-7.81 10.70-12.23L10.70-38.22L4.31-38.22L4.31-12.23C4.31-4.37 10.76 0.55 18.62 0.55Z"
            transform="translate(-4.313011828935395, 38.76251137397634)"></path>
        </g>
      </g>
      <g transform="translate(148, 5.063915026725063)">
        <g data-gra="path-name" fill="#4e374f" transform="scale(1)">
          <path
            d="M14.90 0.55C21.07 0.55 26.81-3.38 26.81-10.70C26.81-15.23 24.62-19.11 20.58-20.96C17.85-22.22 15.18-22.22 14.90-22.22C12.07-22.22 9.34-23.91 9.34-27.08C9.34-30.63 11.90-32.37 14.90-32.37C17.80-32.37 20.25-30.96 20.36-27.79L26.70-27.79C26.59-34.29 21.51-38.76 14.90-38.76C8.74-38.76 2.95-34.34 2.95-27.08C2.95-22.55 5.19-19.16 9.17-17.31C11.96-16.05 14.58-16.05 14.90-16.05C17.47-15.94 20.47-13.92 20.47-10.70C20.47-7.70 17.85-5.84 14.90-5.84C12.07-5.84 9.44-7.42 9.34-10.59L2.95-10.59C3.06-3.44 8.30 0.38 14.90 0.55Z"
            transform="translate(-2.9481346678798905, 38.76251137397634)"></path>
        </g>
      </g>
    </g>
    <g data-gra="path-slogan" fill-rule="" class="tp-slogan" fill="#4e374f"
      transform="translate(5,55.4362907409668)">
      <rect x="0" height="1" y="3.580000400543213" width="66.072434425354"></rect>
      <rect height="1" y="3.580000400543213" width="66.072434425354" x="95.7924337387085"></rect>
      <g transform="translate(69.072434425354,0)">
        <g transform="scale(1)">
          <path
            d="M1.08-7.87L1.08 0L2.03 0L2.03-4.12C2.03-4.53 2.01-4.95 1.99-5.36C1.96-5.77 1.93-6.18 1.90-6.58L1.94-6.58L2.80-4.96L5.65 0L6.68 0L6.68-7.87L5.74-7.87L5.74-3.80C5.74-3.39 5.75-2.97 5.78-2.54C5.81-2.11 5.83-1.70 5.86-1.30L5.81-1.30L4.96-2.93L2.11-7.87ZM11.75 0.14C12.24 0.14 12.70 0.05 13.11-0.14C13.52-0.34 13.88-0.61 14.18-0.97C14.48-1.32 14.71-1.75 14.87-2.26C15.04-2.77 15.12-3.34 15.12-3.97C15.12-4.60 15.04-5.16 14.87-5.66C14.71-6.16 14.48-6.58 14.18-6.93C13.88-7.28 13.52-7.55 13.11-7.73C12.70-7.92 12.24-8.02 11.75-8.02C11.25-8.02 10.80-7.92 10.39-7.74C9.97-7.56 9.62-7.29 9.32-6.94C9.03-6.59 8.80-6.17 8.63-5.67C8.47-5.17 8.39-4.60 8.39-3.97C8.39-3.34 8.47-2.77 8.63-2.26C8.80-1.75 9.03-1.32 9.32-0.97C9.62-0.61 9.97-0.34 10.39-0.14C10.80 0.05 11.25 0.14 11.75 0.14ZM11.75-0.73C11.40-0.73 11.08-0.81 10.79-0.96C10.51-1.11 10.27-1.33 10.06-1.61C9.86-1.90 9.70-2.24 9.59-2.63C9.48-3.03 9.42-3.48 9.42-3.97C9.42-4.46 9.48-4.90 9.59-5.29C9.70-5.68 9.86-6.02 10.06-6.29C10.27-6.56 10.51-6.77 10.79-6.92C11.08-7.07 11.40-7.14 11.75-7.14C12.10-7.14 12.42-7.07 12.70-6.92C12.99-6.77 13.23-6.56 13.43-6.29C13.64-6.02 13.80-5.68 13.91-5.29C14.02-4.90 14.08-4.46 14.08-3.97C14.08-3.48 14.02-3.03 13.91-2.63C13.80-2.24 13.64-1.90 13.43-1.61C13.23-1.33 12.99-1.11 12.70-0.96C12.42-0.81 12.10-0.73 11.75-0.73ZM15.94-7.87L17.60 0L18.79 0L19.96-4.74C20.02-5.04 20.09-5.34 20.15-5.63C20.22-5.93 20.29-6.22 20.35-6.53L20.40-6.53C20.46-6.22 20.53-5.93 20.59-5.63C20.65-5.34 20.71-5.04 20.78-4.74L21.97 0L23.17 0L24.80-7.87L23.84-7.87L23.02-3.59C22.94-3.16 22.86-2.74 22.79-2.32C22.72-1.90 22.64-1.48 22.57-1.04L22.52-1.04C22.43-1.48 22.33-1.90 22.24-2.33C22.14-2.75 22.04-3.17 21.95-3.59L20.86-7.87L19.94-7.87L18.85-3.59C18.76-3.16 18.67-2.74 18.58-2.32C18.48-1.90 18.39-1.48 18.30-1.04L18.25-1.04C18.18-1.48 18.10-1.90 18.02-2.32C17.94-2.73 17.87-3.16 17.80-3.59L16.97-7.87Z"
            transform="translate(-1.08, 8.016)"></path>
        </g>
      </g>
    </g>
  </g>
  <defs v-gra="od"></defs>
</svg>